PERFORMER "Steve Lawler"
TITLE "Essential Mix (2003-10-05)"
FILE "(2003-10-05) Steve Lawler - Essential Mix (dk).mp3" MP3
  TRACK 01 AUDIO
    TITLE "Rosa Blu (Lee Cabrera Mix)"
    PERFORMER "Planet Funk"
    INDEX 01 00:00:00
  TRACK 02 AUDIO
    TITLE "Coffee Beats Vol2 (Chus Mix)"
    PERFORMER "Del Gado"
    INDEX 01 06:59:16
  TRACK 03 AUDIO
    TITLE "..."
    PERFORMER "Frank O Moiraghi Presents Tribal Experience"
    INDEX 01 14:12:62
  TRACK 04 AUDIO
    TITLE "Yer Mamma (Desert Mix)"
    PERFORMER "Mutator "
    INDEX 01 18:15:53
  TRACK 05 AUDIO
    TITLE "Beginning To Believe (Sandy Rivera Mix)"
    PERFORMER "J Groove"
    INDEX 01 24:59:41
  TRACK 06 AUDIO
    TITLE "We Don't Want Another War"
    PERFORMER "Julian Poker Presents Republic"
    INDEX 01 29:43:62
  TRACK 07 AUDIO
    TITLE "Drummer Madness"
    PERFORMER "Richard Grey Presents King Master"
    INDEX 01 35:50:29
  TRACK 08 AUDIO
    TITLE "Falling Hi"
    PERFORMER "Safri Duo"
    INDEX 01 41:04:40
  TRACK 09 AUDIO
    TITLE "Acid Test"
    PERFORMER "Mark Knight"
    INDEX 01 47:34:11
  TRACK 10 AUDIO
    TITLE "Sushi"
    PERFORMER "Kao"
    INDEX 01 52:29:52
  TRACK 11 AUDIO
    TITLE "All I Know (Old School Mix)"
    PERFORMER "Spoiled"
    INDEX 01 58:01:65
  TRACK 12 AUDIO
    TITLE "Locking Down (Dead Guys Dub)"
    PERFORMER "Chicane"
    INDEX 01 63:59:15
  TRACK 13 AUDIO
    TITLE "Dark Kiss"
    PERFORMER "Oscar G"
    INDEX 01 69:51:00
  TRACK 14 AUDIO
    TITLE "American Xs"
    PERFORMER "Da Camp"
    INDEX 01 75:52:60
  TRACK 15 AUDIO
    TITLE "Highest of the High"
    PERFORMER "Sinesweeper"
    INDEX 01 82:05:72
  TRACK 16 AUDIO
    TITLE "Rythmique"
    PERFORMER "Kenny D"
    INDEX 01 87:35:28
  TRACK 17 AUDIO
    TITLE "Erotic City"
    PERFORMER "Superfly Inc"
    INDEX 01 91:08:44
  TRACK 18 AUDIO
    TITLE "Rock That House"
    PERFORMER "S.W.A.P."
    INDEX 01 97:43:46
  TRACK 19 AUDIO
    TITLE "I Can't Explain"
    PERFORMER "Bombdogs"
    INDEX 01 103:27:72
  TRACK 20 AUDIO
    TITLE "Sweet Dreams (Unreleased Breaks Mix)"
    PERFORMER "Eurythmics"
    INDEX 01 110:57:10
 